<svg id="Layer_2" data-name="Layer 2" xmlns="http://www.w3.org/2000/svg" width="16" height="16" viewBox="0 0 16 16"><title>16px</title><polygon points="7.4 1.4 5.7 3 5.6 4.1 6.1 4.1 8.3 1.3 7.4 1.4" fill="#76489d"/><path d="M4.8,10.2c.7.1,1.9-.9,1.8-.7a7.6,7.6,0,0,1-.6,2.3,2.6,2.6,0,0,0,.7-.6,7.9,7.9,0,0,1-.9,2.5c.5-.4.7-.5.8-.8a4,4,0,0,0-.2,1.5c1.4-.1,7-2.9,8-3.7a.3.3,0,0,0,0-.1.7.7,0,0,0,.8-.2c-.2-.2-.5-.2-.8-.7s.5.2.7,0A1.3,1.3,0,0,1,14.4,8c0-.5,1-.8.4-1.8A3.2,3.2,0,0,0,14,2.7a6.5,6.5,0,0,0-2.1-1.4H8.7L3.6,7.7S4.2,10.1,4.8,10.2Z" fill="#a388bf"/><path d="M11.8,1.2A20,20,0,0,0,8.4.7l-1,.7c.7-.1.5.6-1.9,2.7l-4.3,2,.3,2.5s2.6,1.6,3.3,1.5-.4-1,1-2.3S5.2,5.5,7.4,3.6,7.7,1.5,10,1.3Z" fill="#cabcdc"/><path d="M1,9.1a3.7,3.7,0,0,0,2.6.7L1.6,8.7Z" fill="#76489d"/><path d="M1,6.4C.7,6.8.6,8.7,1,9.1l.5-.4V7.6A3,3,0,0,1,1,6.4Z" fill="#a388bf"/><path d="M1,6.4a1.1,1.1,0,0,1,1.7.3A3.7,3.7,0,0,1,1.6,7.7,2.9,2.9,0,0,1,1,6.4Z" fill="#231f20"/><path d="M11.8,2.6A6.4,6.4,0,0,1,9.4,7a1.6,1.6,0,0,0,.7-.3,2.7,2.7,0,0,0-.7,2.2,2,2,0,0,1,.5-.8c-.5,1.2-.4,1.9.7,2.4a.9.9,0,0,1-.1-.5s1.3,1,2.2-.2.1.4-.1.5.6-.4.8-.8l.8-1.2.3-.5c.3-.6.8-.6.3-1.5s.9-3.2-3-5" fill="none" stroke="#231f20" stroke-linecap="round" stroke-linejoin="round" stroke-width="0.25"/><path d="M1.6,7.7v.9l2.7,1.5a2.5,2.5,0,0,0,1.3-.1A5.9,5.9,0,0,1,8.8,8.9" fill="none" stroke="#231f20" stroke-linecap="round" stroke-linejoin="round" stroke-width="0.25"/><path d="M7.6,4.3a1.5,1.5,0,0,1,1.9.2A1.2,1.2,0,0,1,7.6,4.3Z" fill="#fff"/><path d="M7.2,4.6c.6-.4,1.1-1.1,2.6,0" fill="none" stroke="#231f20" stroke-miterlimit="10" stroke-width="0.25"/><path d="M7.6,4.3c.5.6,1.4,1,1.9.1" fill="none" stroke="#231f20" stroke-miterlimit="10" stroke-width="0.25"/><circle cx="8.6" cy="4.2" r="0.3" fill="#231f20"/><path d="M6.4,15.3c1.7-.3,8.1-3.1,8.8-4.1a1.1,1.1,0,0,0-.6-.7c-1.2.9-7.1,3.7-8.4,3.8S6.2,15.1,6.4,15.3Z" fill="#231f20"/></svg>