<svg id="Layer_2" data-name="Layer 2" xmlns="http://www.w3.org/2000/svg" width="32" height="32" viewBox="0 0 32 32"><title>32px</title><polygon points="14.9 3.1 11.5 6.1 11.2 8.4 12.3 8.4 16.6 2.8 14.9 3.1" fill="#76489d"/><path d="M9.8,20.3c1.3.2,3.6-1.7,3.6-1.5s-.5,3.8-1.2,4.4a5.1,5.1,0,0,0,1.3-1.2s-.8,3.9-1.8,5c1-.7,1.4-1,1.7-1.5a7.9,7.9,0,0,0-.4,2.9c2.7-.3,13.7-5.7,15.8-7.3a.6.6,0,0,0,0-.3,1.3,1.3,0,0,0,1.5-.4c-.3-.4-.9-.4-1.6-1.4s1,.4,1.4,0a2.6,2.6,0,0,1-1.5-2.9c0-1,2-1.6.8-3.5.5-1.7,1.2-4.2-1.7-7.1a12.8,12.8,0,0,0-4.2-2.8l-6.1-.3L7.4,15.4S8.5,20.1,9.8,20.3Z" fill="#a388bf"/><path d="M23.5,2.7a39.2,39.2,0,0,0-6.7-1L14.9,3.1c1.3-.2,1.1,1.2-3.7,5.4l-8.4,4,.5,4.9s5,3.2,6.4,3-.7-1.9,1.9-4.5-1.2-4.6,3.2-8.4c2.5-2,.5-4.1,5.1-4.5Z" fill="#cabcdc"/><path d="M2.3,18.1c.6.8,3.3,1.7,5.1,1.5L3.4,17.3Z" fill="#76489d"/><path d="M2.3,12.8c-.5.8-.9,4.6,0,5.3l1.1-.8V15.2A5.9,5.9,0,0,1,2.3,12.8Z" fill="#a388bf"/><path d="M2.3,12.8a2.1,2.1,0,0,1,3.4.5,7.2,7.2,0,0,1-2.3,2.1A5.6,5.6,0,0,1,2.3,12.8Z" fill="#231f20"/><path d="M23.4,5.3c-.1,1.9-1.3,6.3-4.6,8.6a3.1,3.1,0,0,0,1.3-.5c-1.1,1.2-1.4,2.5-1.3,4.3a4,4,0,0,1,1-1.6c-1,2.4-.8,3.8,1.4,4.6a1.7,1.7,0,0,1-.3-.9s2.6,2,4.2-.4c0,0,.2.8-.3,1.1s1.1-.8,1.6-1.6a20.8,20.8,0,0,1,1.6-2.4l.6-.9c.5-1.1,1.6-1.2.7-3,.7-1.7,1.8-6.3-5.9-9.9" fill="none" stroke="#231f20" stroke-linecap="round" stroke-linejoin="round" stroke-width="0.5"/><path d="M3.4,15.4v1.9l5.3,2.9a4.8,4.8,0,0,0,2.6-.1,11.6,11.6,0,0,1,6.3-2.4" fill="none" stroke="#231f20" stroke-linecap="round" stroke-linejoin="round" stroke-width="0.5"/><path d="M15.2,8.7a2.9,2.9,0,0,1,3.7.4A2.4,2.4,0,0,1,15.2,8.7Z" fill="#fff"/><path d="M14.4,9.3c1.1-.9,2.2-2.2,5.1,0" fill="none" stroke="#231f20" stroke-miterlimit="10" stroke-width="0.5"/><path d="M15.2,8.7c.9,1.2,2.7,1.9,3.8.2" fill="none" stroke="#231f20" stroke-miterlimit="10" stroke-width="0.5"/><circle cx="17.1" cy="8.6" r="0.5" fill="#231f20"/><path d="M12.8,30.3c3.3-.5,15.9-6.1,17.2-8A2.1,2.1,0,0,0,28.9,21c-2.4,1.8-14,7.2-16.4,7.4C12.4,29,12.4,30,12.8,30.3Z" fill="#231f20"/></svg>