<svg id="Layer_2" data-name="Layer 2" xmlns="http://www.w3.org/2000/svg" width="64" height="64" viewBox="0 0 64 64"><title>64px</title><polygon points="30 5.7 23 12.1 22.5 16.7 24.7 16.7 33.4 5.2 30 5.7" fill="#76489d"/><path d="M19.5,41.1c2.7.5,7.5-3.5,7.4-3s-1.1,7.7-2.4,9.1a10.4,10.4,0,0,0,2.7-2.5s-1.7,8-3.8,10.2c2-1.4,2.9-2.1,3.4-3.1s-1.2,3.8-.8,5.9c5.6-.6,28.1-11.6,32.4-14.9a1.3,1.3,0,0,0,0-.6,2.8,2.8,0,0,0,3-.7c-.6-.9-1.8-.8-3.2-3,1.2.6,2.1.7,2.8-.1s-3.4-1.3-3-6c.1-2,4.2-3.2,1.7-7.1,1.1-3.5,2.4-8.6-3.4-14.5C53.2,7.2,47.7,5,47.7,5L35.2,4.4,14.6,31.1S16.8,40.6,19.5,41.1Z" fill="#a388bf"/><path d="M47.7,5S38,2.7,33.9,2.9L30,5.7c2.6-.3,2.2,2.5-7.5,11L5.2,24.9l1.1,10s10.3,6.5,13.2,6.2c0,0-1.4-3.9,3.9-9.2,2.7-2.7-2.5-9.5,6.5-17.3,5.1-4,1-8.3,10.4-9.1Z" fill="#cabcdc"/><path d="M4.1,36.5c1.3,1.7,6.7,3.4,10.5,3L6.3,34.9Z" fill="#76489d"/><path d="M4.1,25.7c-1.1,1.6-1.8,9.5,0,10.8l2.2-1.6V30.6A12.2,12.2,0,0,1,4.1,25.7Z" fill="#a388bf"/><path d="M4.1,25.7c2.7-2.7,6.6-.9,7,1.1a14.7,14.7,0,0,1-4.8,4.3C4.6,29.2,4.1,25.7,4.1,25.7Z" fill="#231f20"/><path d="M47.4,10.4c-.3,3.9-2.6,12.9-9.4,17.7a6.4,6.4,0,0,0,2.7-1c-2.4,2.4-2.8,5.1-2.7,8.9a8.1,8.1,0,0,1,2.1-3.2c-2.1,4.8-1.6,7.7,2.8,9.5a3.4,3.4,0,0,1-.5-1.9s5.3,4.1,8.7-.8c0,0,.5,1.6-.5,2.2,1.8-.6,2.4-1.7,3.2-3.3a42.8,42.8,0,0,1,3.3-5,10.5,10.5,0,0,0,1.2-1.9c1.1-2.3,3.3-2.5,1.3-6.2,1.4-3.5,3.7-12.9-12-20.3" fill="none" stroke="#231f20" stroke-linecap="round" stroke-linejoin="round" stroke-width="0.75"/><path d="M6.3,31.1v3.8l10.9,5.9a9.9,9.9,0,0,0,5.3-.2c.1,0,6.1-4.8,12.8-4.8" fill="none" stroke="#231f20" stroke-linecap="round" stroke-linejoin="round" stroke-width="0.75"/><path d="M30.5,17.3c2.3-1.7,6.1-1.2,7.7.8C36.1,20.6,32.5,20,30.5,17.3Z" fill="#fff"/><path d="M29,18.5c2.2-1.8,4.5-4.6,10.4,0" fill="none" stroke="#231f20" stroke-miterlimit="10" stroke-width="0.75"/><path d="M30.5,17.3c1.9,2.5,5.6,3.9,7.8.4" fill="none" stroke="#231f20" stroke-miterlimit="10" stroke-width="0.75"/><circle cx="34.6" cy="17.2" r="1.1" fill="#231f20"/><path d="M25.7,61.6c6.7-1,32.6-12.5,35.3-16.4a4.2,4.2,0,0,0-2.4-2.6C53.8,46.3,29.9,57.4,25,57.8,24.8,58.9,24.9,61,25.7,61.6Z" fill="#231f20"/></svg>