<svg id="Layer_2" data-name="Layer 2" xmlns="http://www.w3.org/2000/svg" width="256" height="113.8" viewBox="0 0 256 113.8"><title>256px</title><polygon points="58.5 13.2 46.7 23.8 45.9 31.7 49.6 31.7 64.2 12.2 58.5 13.2" fill="#76489d"/><path d="M40.8,72.7c4.5.8,12.5-5.9,12.4-5s-1.8,12.9-4,15.2a17.5,17.5,0,0,0,4.6-4.2S51,92.2,47.5,95.9c3.4-2.4,4.9-3.5,5.7-5.3-.1.3-2.1,6.5-1.4,10C61.2,99.6,99,81,106.3,75.5a2.2,2.2,0,0,0,0-.9c2.3.9,3.8-.1,5.1-1.2-1.1-1.5-3.1-1.3-5.4-5,2,.9,3.5,1.2,4.7-.1-1.2-1.1-5.7-2.2-5.1-10.1.1-3.4,7-5.4,2.8-12,1.9-5.9,4-14.4-5.8-24.4C97.5,15.8,88.2,12,88.2,12L67.3,11,32.6,55.8S36.3,71.9,40.8,72.7Z" fill="#a388bf"/><path d="M88.2,12S71.9,8.2,65,8.5l-6.5,4.7c4.5-.5,3.6,4.2-12.7,18.5L16.8,45.4l1.8,16.9S36,73.3,40.8,72.7c0,0-2.4-6.6,6.5-15.5,4.6-4.6-4.2-15.9,10.9-29.1,8.6-6.7,1.8-14,17.5-15.4Z" fill="#cabcdc"/><path d="M15,65c2.2,2.8,11.3,5.7,17.6,5l-14-7.7Z" fill="#76489d"/><path d="M15,46.8c-1.9,2.7-3,16,0,18.2l3.7-2.7V55A20.5,20.5,0,0,1,15,46.8Z" fill="#a388bf"/><path d="M15,46.8c4.5-4.5,11-1.5,11.8,1.8a24.7,24.7,0,0,1-8.1,7.3C15.7,52.6,15,46.8,15,46.8Z" fill="#231f20"/><path d="M87.8,21.1c-.5,6.6-4.4,21.7-15.8,29.8a10.8,10.8,0,0,0,4.5-1.7c-4,4-4.7,8.5-4.5,14.9a13.7,13.7,0,0,1,3.6-5.4c-3.5,8.2-2.8,13,4.7,15.9a5.8,5.8,0,0,1-.9-3.1c-.1,0,8.9,6.9,14.6-1.3,0,0,.8,2.8-.9,3.7,3.1-.9,4-2.9,5.5-5.6a71.9,71.9,0,0,1,5.5-8.4,17.6,17.6,0,0,0,2.1-3.2c1.9-3.8,5.6-4.2,2.2-10.5,2.3-5.9,6.2-21.8-20.2-34.1" fill="none" stroke="#231f20" stroke-linecap="round" stroke-linejoin="round"/><path d="M18.7,55.9v6.4l18.3,10a16.6,16.6,0,0,0,9-.4c.1-.1,10.3-8.1,21.6-8.1" fill="none" stroke="#231f20" stroke-linecap="round" stroke-linejoin="round"/><path d="M59.4,32.7c3.8-2.9,10.3-2.1,12.9,1.4C68.8,38.2,62.6,37.1,59.4,32.7Z" fill="#fff"/><path d="M56.8,34.8c3.8-3,7.6-7.7,17.5,0" fill="none" stroke="#231f20" stroke-miterlimit="10"/><path d="M59.4,32.7c3.2,4.2,9.4,6.5,13.1.7" fill="none" stroke="#231f20" stroke-miterlimit="10"/><circle cx="66.2" cy="32.7" r="1.8" fill="#231f20"/><path d="M51.3,107.2c11.2-1.7,54.8-21.1,59.4-27.5-.2-1.4-2.3-4.1-4-4.4-8.1,6.2-48.4,24.8-56.6,25.5C49.8,102.6,49.9,106.1,51.3,107.2Z" fill="#231f20"/><path d="M118.5,56.4V10.6h5.7V51.2h17.9v5.2Z" fill="#231f20"/><path d="M146,43.8V33.8c0-9.2,5-12.6,13-12.6s13,3.4,13,12.6v9.9c0,9.5-3.8,13.3-13,13.3S146,53.2,146,43.8Zm20.4,0V33.8c0-6.3-2.7-7.6-7.4-7.6s-7.4,1.2-7.4,7.6v9.9c0,6.3,2.3,8.3,7.4,8.3S166.4,50.1,166.4,43.8Z" fill="#231f20"/><path d="M188.6,48.9a150.1,150.1,0,0,1,4.3-16.5l3.4-10.8h5.9L191.3,56.5l-2.1,6.6c-2.2,7-6.1,8.7-12.7,6.1l1-4.8c2.4,1,5.2,1.5,6.7-2.9l1.4-4.9L174.6,21.6h6.2l3.3,11.2Z" fill="#231f20"/><path d="M229.4,56.4h-5.1l-.5-4.7a10,10,0,0,1-8.9,5c-8,0-9.9-4.2-10.4-8.3-.6-6.1,3.6-10.5,10.7-11.5a66.2,66.2,0,0,1,8.4-.5V32.9c0-3.9-1.4-6.5-6.6-6.5-3.3,0-5.5,1.1-5.5,5.8h-5.5c-.2-7.7,3.8-11,11.2-11s12.1,3.2,12.1,11.7ZM215.8,41.6c-3.9.8-5.9,2.7-5.5,6.1s2.7,3.6,5.2,3.6c6.2,0,8.1-4.6,8.3-10.3A38.6,38.6,0,0,0,215.8,41.6Z" fill="#231f20"/><path d="M237.3,10.5h5.5V47.3c0,2.8,1.1,3.5,3.6,3.5v5.6c-6.8,0-9.1-1.7-9.1-9Z" fill="#231f20"/><path d="M130.1,88.7l6.9,12h-4.6L126,89h-3.6v11.8h-3.9V68.9H127c5.6,0,9,2.3,9,8.7v2.2C136,84.8,134.5,87.8,130.1,88.7Zm-7.7-16.1V85.2H127c3.5,0,5.1-1.1,5.1-5.4V77.5c0-4.4-1.6-4.7-5.1-4.9Z" fill="#231f20"/><path d="M156.8,93.7c0,4.7-2.6,7.2-8.8,7.2s-8.9-2.3-8.9-8.8v-7c0-6.3,3.4-8.6,8.9-8.6s8.9,2.3,8.9,8.6v5.1H142.9V92c0,4.3,1.6,5.3,5,5.3s5-1.2,5-3.6Zm-13.8-6.9h10.2V85.1c0-4.2-2.1-5.1-5.1-5.1s-5,.9-5,5.1Z" fill="#231f20"/><path d="M173.4,83.4c0-2.3-1.4-3.5-4.4-3.5s-4.3,1.2-4.3,3.8,2.2,2.8,5.1,3,8,.9,8,6.7-3.5,7.5-8.5,7.5-8.5-2.6-8.7-7.7h4c.2,3,2.3,4.1,4.8,4.1s4.6-1.5,4.6-3.8-2.8-3.1-5.8-3.3-7.4-1.1-7.4-6.5,2.7-7.4,8.4-7.4,8.2,2.6,8,7.1Z" fill="#231f20"/><path d="M199.4,92.5c-.1,6.3-2.6,8.6-8.8,8.6s-9-2.6-9-9.2V85.1c0-6.4,3.5-8.8,9-8.8s8.6,1.9,8.8,8.1h-3.7c-.2-3.8-2-4.5-5.1-4.5s-5.1.8-5.1,5.1v6.8c0,4.4,1.8,5.4,5.1,5.4s5-.7,5.1-4.8Z" fill="#231f20"/><path d="M221.9,100.7h-3.5l-.2-2.6c-1.4,2.3-3.8,2.8-6.2,2.8-5.3,0-8-2.3-8-8.7V76.8h4V92.2c0,3.4,1.9,5.1,4.7,5.1s5.3-1.7,5.3-5.1V76.8h4Z" fill="#231f20"/><path d="M244.6,93.7c0,4.7-2.6,7.2-8.8,7.2s-8.9-2.3-8.9-8.8v-7c0-6.3,3.4-8.6,8.9-8.6s8.9,2.3,8.9,8.6v5.1H230.8V92c0,4.3,1.6,5.3,5,5.3s5-1.2,5-3.6Zm-13.8-6.9H241V85.1c0-4.2-2.1-5.1-5.1-5.1s-5,.9-5,5.1Z" fill="#231f20"/><path d="M252.1,2.3V109.4H3.4V2.3H252.1m1-1H2.4V110.4H253.1V1.3Z" fill="#231f20"/></svg>