<svg xmlns="http://www.w3.org/2000/svg" width="16" height="16" viewBox="0 0 16 16"><circle cx="8" cy="7.9" r="5.9" fill="#fff"/><path fill="#c9f" d="M9.5 3.5c-.6.5-2.2 1.4-2.3 3.3a1.1 1.1 0 0 1-.1.5 3.6 3.6 0 0 0-.5 2A2.7 2.7 0 0 1 3.5 9c-.5-.8-.7-1.6.2-2.2s2.6-1 2.8-1.2l1.8-2a3.6 3.6 0 0 1 1.2-.1z"/><path fill="#96c" d="M15 8a7 7 0 1 1-7-7 7 7 0 0 1 7 7zm-3.2 2.1s2.7-5.9-2.3-6.4c-2.2-.2-2.6 1.2-3.2 2.1S2.5 7.3 3.1 8.3A2.5 2.5 0 0 0 7 9a7.1 7.1 0 0 0-.9 3.9c1.6-.1 4.8-1.6 5.7-2.8z"/><path fill="#96c" d="M10.7 3.9c-.3 2.4-2.4 3.9-.8 4.7s4.3-2.9.8-4.7zM3.6 7.1a.3.3 0 0 1 .3.3 2.3 2.3 0 0 1-.2 1.5c-.3.3-.7-.5-.7-.9s.3-.9.6-.9z"/></svg>