<svg xmlns="http://www.w3.org/2000/svg" width="256" height="256" viewBox="0 0 256 256"><circle cx="128" cy="126" r="105.5" fill="#fff"/><path fill="#c9f" d="M155.3 47.9c-11 9.2-39.1 25.4-41.3 58.7a20.2 20.2 0 0 1-2.5 9.1c-2.6 4.3-8.9 15-8.9 35.8-9.8 9.8-45.9 8.8-55.7-4.9S34.4 117.7 51 108c23.4-13.7 45.8-17.1 49.7-21s25.3-29.3 33.2-37.1c6.8-3 21.4-2 21.4-2z"/><path fill="#96c" d="M253 128A125 125 0 1 1 128 3a125 125 0 0 1 125 125zm-57.6 37.1s47.8-105.2-41.5-114.7c-38.3-3.2-46.3 22-55.6 38.4-26.9 12.9-67.7 25.9-58.4 44.4 12.8 28.7 53.7 29.2 69.4 12.9-9.6 19.1-15.9 31.9-15.9 70.1 28.7-3.3 86-28.8 102-51.1z"/><path fill="#96c" d="M176 54.5c-4.7 42.2-42.2 70.4-14.1 84.5s77.4-51.7 14.1-84.5zm-127.1 58a5.7 5.7 0 0 1 4.7 4.9c1.2 7.6-.2 22.2-4.3 26.2s-12.6-8.6-11.7-16.4 5.7-15.5 11.3-14.7z"/></svg>