<svg xmlns="http://www.w3.org/2000/svg" width="64" height="64" viewBox="0 0 64 64"><circle cx="32" cy="31.5" r="26.2" fill="#fff"/><path fill="#c9f" d="M38.8 12.1c-2.7 2.3-9.7 6.3-10.2 14.6a5 5 0 0 1-.6 2.2 16 16 0 0 0-2.2 8.9C23.4 40.2 14.4 40 12 36.6s-3.1-7.2 1-9.6c5.8-3.4 11.3-4.2 12.3-5.2s6.3-7.3 8.2-9.2 5.3-.5 5.3-.5z"/><path fill="#96c" d="M63 32A31 31 0 1 1 32 1a31 31 0 0 1 31 31zm-14.3 9.2s11.9-26.1-10.3-28.5c-9.5-.7-11.4 5.5-13.8 9.6-6.7 3.2-16.8 6.4-14.5 11 3.2 7.1 13.3 7.2 17.2 3.2-2.4 4.7-4 7.9-4 17.4 7.2-.8 21.5-7.2 25.4-12.7z"/><path fill="#96c" d="M43.9 13.8c-1.2 10.5-10.5 17.5-3.5 20.9s19.2-12.8 3.5-20.9zM12.4 28.2a1.4 1.4 0 0 1 1.2 1.2c.3 1.9-.1 5.5-1.1 6.5s-3.1-2.1-2.9-4.1 1.4-3.8 2.8-3.6z"/></svg>