<svg xmlns="http://www.w3.org/2000/svg" width="32" height="32" viewBox="0 0 32 32"><circle cx="16" cy="15.8" r="12.7" fill="#fff"/><path fill="#c9f" d="M19.3 6.4c-1.3 1.1-4.7 3-5 7a2.4 2.4 0 0 1-.3 1.1 7.8 7.8 0 0 0-1 4.3c-1.2 1.2-5.5 1.1-6.7-.6s-1.5-3.5.5-4.6 5.5-2.1 6-2.5 3-3.5 4-4.5a7.7 7.7 0 0 1 2.5-.2z"/><path fill="#96c" d="M31 16A15 15 0 1 1 16 1a15 15 0 0 1 15 15zm-6.9 4.5s5.7-12.6-5-13.8c-4.6-.4-5.6 2.6-6.7 4.6-3.2 1.5-8.1 3.1-7 5.3s6.4 3.5 8.3 1.5c-1.1 2.3-1.9 3.8-1.9 8.4 3.5-.3 10.4-3.4 12.3-6z"/><path fill="#96c" d="M21.8 7.2c-.6 5.1-5.1 8.4-1.7 10.1s9.3-6.2 1.7-10.1zM6.5 14.1a.7.7 0 0 1 .6.6 5 5 0 0 1-.5 3.1c-.6.6-1.5-1-1.4-2s.6-1.8 1.3-1.7z"/></svg>