<svg xmlns="http://www.w3.org/2000/svg"><symbol id="adopt-icon" viewBox="0 0 259 259"><circle cx="130" cy="130" r="122" fill="#76489c"/><path fill="#fff" d="M195.8 166.2s46.7-102.7-40.4-112c-37.3-3.1-45.1 21.5-54.3 37.4C74.8 104.2 35 117 44 135c12.4 28 52.5 28.5 67.7 12.6-9.3 18.7-15.6 31.1-15.6 68.4 28.1-3.1 84.1-28 99.7-49.8z"/><path fill="#76489c" d="M167.3 62.1c-4.6 41.2-41.2 68.7-13.7 82.4s75.5-50.4 13.7-82.4zM52.8 114.9a5.6 5.6 0 0 1 4.5 4.8c1.2 7.4-.2 21.6-4.2 25.6s-12.2-8.4-11.4-16 5.7-15.2 11.1-14.4z"/></symbol><symbol id="contact-icon" viewBox="0 0 259 259"><circle cx="130" cy="129" r="122" fill="#76489c"/><path fill="#fff" d="M88 49h84v160H88z"/><rect width="31.4" height="7" x="114.3" y="56" fill="#76489c" rx="3.5" ry="3.5"/><circle cx="130" cy="198" r="7" fill="#76489c"/><path fill="#76489c" d="M96 71h69v115H96z"/></symbol><symbol id="trail-icon" viewBox="0 0 259 259"><circle cx="130" cy="130" r="122" fill="#76489c"/><rect width="110" height="142.35" x="75" y="58.8" fill="#fff" rx="12.2" ry="12.2"/><path fill="none" stroke="#76489c" stroke-miterlimit="10" stroke-width="10" d="M95 89h95M64 110h126M68 131h122M64 152h126M53 173h137"/><path fill="#76489c" d="M106.3 187.8l90.4-114.5-10.5-8.3-90.4 114.6-11.1 25.5 21.6-17.3z"/></symbol></svg>
